{
  "asset": {
    "generator": "glTF-Transform v$npm_package_version",
    "version": "2.0"
  },
  "accessors": [
    {
      "type": "VEC3",
      "componentType": 5126,
      "count": 432,
      "max": [
        0.37593844532966614,
        0.259630411863327,
        0.25106513500213623
      ],
      "min": [
        -0.3759382665157318,
        -0.125,
        -0.25499194860458374
      ],
      "bufferView": 0,
      "byteOffset": 0
    },
    {
      "type": "VEC3",
      "componentType": 5126,
      "count": 432,
      "bufferView": 0,
      "byteOffset": 12
    },
    {
      "type": "VEC2",
      "componentType": 5126,
      "count": 432,
      "bufferView": 0,
      "byteOffset": 24
    },
    {
      "type": "VEC3",
      "componentType": 5126,
      "count": 8164,
      "max": [
        0.3870794475078583,
        0.26444846391677856,
        0.26194798946380615
      ],
      "min": [
        -0.3869999945163727,
        -0.12700000405311584,
        -0.26194798946380615
      ],
      "bufferView": 1,
      "byteOffset": 0
    },
    {
      "type": "VEC3",
      "componentType": 5126,
      "count": 8164,
      "bufferView": 1,
      "byteOffset": 12
    },
    {
      "type": "VEC2",
      "componentType": 5126,
      "count": 8164,
      "bufferView": 1,
      "byteOffset": 24
    },
    {
      "type": "VEC3",
      "componentType": 5126,
      "count": 6203,
      "max": [
        0.22599999606609344,
        0.21963240206241608,
        0.30827876925468445
      ],
      "min": [
        -0.22599999606609344,
        0,
        -0.28101834654808044
      ],
      "bufferView": 2,
      "byteOffset": 0
    },
    {
      "type": "VEC3",
      "componentType": 5126,
      "count": 6203,
      "bufferView": 2,
      "byteOffset": 12
    },
    {
      "type": "VEC2",
      "componentType": 5126,
      "count": 6203,
      "bufferView": 2,
      "byteOffset": 24
    },
    {
      "type": "SCALAR",
      "componentType": 5123,
      "count": 903,
      "bufferView": 3,
      "byteOffset": 0
    },
    {
      "type": "SCALAR",
      "componentType": 5123,
      "count": 28224,
      "bufferView": 3,
      "byteOffset": 1808
    },
    {
      "type": "SCALAR",
      "componentType": 5123,
      "count": 16863,
      "bufferView": 3,
      "byteOffset": 58256
    }
  ],
  "bufferViews": [
    {
      "buffer": 0,
      "byteOffset": 0,
      "byteLength": 13824,
      "byteStride": 32,
      "target": 34962
    },
    {
      "buffer": 0,
      "byteOffset": 13824,
      "byteLength": 261248,
      "byteStride": 32,
      "target": 34962
    },
    {
      "buffer": 0,
      "byteOffset": 275072,
      "byteLength": 198496,
      "byteStride": 32,
      "target": 34962
    },
    {
      "buffer": 0,
      "byteOffset": 473568,
      "byteLength": 91984,
      "target": 34963
    }
  ],
  "samplers": [
    {
      "magFilter": 9729,
      "minFilter": 9987,
      "wrapS": 10497,
      "wrapT": 10497
    }
  ],
  "textures": [
    {
      "sampler": 0,
      "extensions": {
        "KHR_texture_basisu": {
          "source": 1
        }
      }
    },
    {
      "sampler": 0,
      "extensions": {
        "KHR_texture_basisu": {
          "source": 0
        }
      }
    },
    {
      "sampler": 0,
      "extensions": {
        "KHR_texture_basisu": {
          "source": 2
        }
      }
    },
    {
      "sampler": 0,
      "extensions": {
        "KHR_texture_basisu": {
          "source": 4
        }
      }
    },
    {
      "sampler": 0,
      "extensions": {
        "KHR_texture_basisu": {
          "source": 3
        }
      }
    },
    {
      "sampler": 0,
      "extensions": {
        "KHR_texture_basisu": {
          "source": 5
        }
      }
    },
    {
      "sampler": 0,
      "extensions": {
        "KHR_texture_basisu": {
          "source": 7
        }
      }
    },
    {
      "sampler": 0,
      "extensions": {
        "KHR_texture_basisu": {
          "source": 6
        }
      }
    },
    {
      "sampler": 0,
      "extensions": {
        "KHR_texture_basisu": {
          "source": 8
        }
      }
    }
  ],
  "images": [
    {
      "name": "dark_wooden_planks_nor_gl_1k",
      "mimeType": "image/ktx2",
      "uri": "dark_wooden_planks_nor_gl_1k.ktx2"
    },
    {
      "name": "dark_wooden_planks_diff_1k",
      "mimeType": "image/ktx2",
      "uri": "dark_wooden_planks_diff_1k.ktx2"
    },
    {
      "name": "1x1_Black-dark_wooden_planks_rough_1k",
      "mimeType": "image/ktx2",
      "uri": "1x1_Black-dark_wooden_planks_rough_1k.ktx2"
    },
    {
      "name": "rust_coarse_01_nor_gl_1k",
      "mimeType": "image/ktx2",
      "uri": "rust_coarse_01_nor_gl_1k.ktx2"
    },
    {
      "name": "rust_coarse_01_diff_1k",
      "mimeType": "image/ktx2",
      "uri": "rust_coarse_01_diff_1k.ktx2"
    },
    {
      "name": "1x1_Black-rust_coarse_01_rough_1k",
      "mimeType": "image/ktx2",
      "uri": "1x1_Black-rust_coarse_01_rough_1k.ktx2"
    },
    {
      "name": "rusty_metal_02_nor_gl_1k",
      "mimeType": "image/ktx2",
      "uri": "rusty_metal_02_nor_gl_1k.ktx2"
    },
    {
      "name": "rusty_metal_02_diff_1k",
      "mimeType": "image/ktx2",
      "uri": "rusty_metal_02_diff_1k.ktx2"
    },
    {
      "name": "1x1_Black-rusty_metal_02_rough_1k",
      "mimeType": "image/ktx2",
      "uri": "1x1_Black-rusty_metal_02_rough_1k.ktx2"
    }
  ],
  "buffers": [
    {
      "uri": "treasure_box.bin",
      "byteLength": 565552
    }
  ],
  "materials": [
    {
      "name": "Wood",
      "doubleSided": true,
      "pbrMetallicRoughness": {
        "baseColorTexture": {
          "index": 0
        },
        "metallicRoughnessTexture": {
          "index": 2
        }
      },
      "normalTexture": {
        "index": 1,
        "scale": 1.5
      }
    },
    {
      "name": "Gold",
      "doubleSided": true,
      "pbrMetallicRoughness": {
        "baseColorTexture": {
          "index": 3,
          "extensions": {
            "KHR_texture_transform": {
              "offset": [
                0,
                -3
              ],
              "scale": [
                4,
                4
              ]
            }
          }
        },
        "metallicRoughnessTexture": {
          "index": 5
        }
      },
      "normalTexture": {
        "index": 4,
        "scale": 1.7999999523162842,
        "extensions": {
          "KHR_texture_transform": {
            "offset": [
              0,
              -3
            ],
            "scale": [
              4,
              4
            ]
          }
        }
      }
    },
    {
      "name": "Metal",
      "doubleSided": true,
      "pbrMetallicRoughness": {
        "baseColorTexture": {
          "index": 6,
          "extensions": {
            "KHR_texture_transform": {
              "offset": [
                0,
                -7
              ],
              "scale": [
                8,
                8
              ]
            }
          }
        },
        "metallicRoughnessTexture": {
          "index": 8
        }
      },
      "normalTexture": {
        "index": 7,
        "scale": 1.7999999523162842,
        "extensions": {
          "KHR_texture_transform": {
            "offset": [
              0,
              -7
            ],
            "scale": [
              8,
              8
            ]
          }
        }
      }
    }
  ],
  "meshes": [
    {
      "name": "Cube",
      "primitives": [
        {
          "attributes": {
            "POSITION": 0,
            "NORMAL": 1,
            "TEXCOORD_0": 2
          },
          "mode": 4,
          "material": 0,
          "indices": 9
        },
        {
          "attributes": {
            "POSITION": 3,
            "NORMAL": 4,
            "TEXCOORD_0": 5
          },
          "mode": 4,
          "material": 1,
          "indices": 10
        },
        {
          "attributes": {
            "POSITION": 6,
            "NORMAL": 7,
            "TEXCOORD_0": 8
          },
          "mode": 4,
          "material": 2,
          "indices": 11
        }
      ]
    }
  ],
  "cameras": [
    {
      "name": "Camera.001",
      "type": "perspective",
      "perspective": {
        "znear": 0.10000000149011612,
        "zfar": 1000,
        "yfov": 0.39959652046304894,
        "aspectRatio": 1.7777777777777777
      }
    }
  ],
  "nodes": [
    {
      "name": "Cube",
      "translation": [
        0,
        0.125,
        0
      ],
      "mesh": 0
    },
    {
      "name": "Camera",
      "translation": [
        0.897385835647583,
        0.824225902557373,
        1.43964684009552
      ],
      "rotation": [
        -0.19597336649894714,
        0.27965039014816284,
        0.058421969413757324,
        0.9380708932876587
      ],
      "camera": 0
    }
  ],
  "scenes": [
    {
      "name": "Scene",
      "nodes": [
        0,
        1
      ]
    }
  ],
  "scene": 0,
  "extensionsUsed": [
    "KHR_texture_transform",
    "KHR_texture_basisu"
  ],
  "extensionsRequired": [
    "KHR_texture_transform",
    "KHR_texture_basisu"
  ]
}