{
	"asset":{
		"generator":"Khronos glTF Blender I/O v3.6.27",
		"version":"2.0"
	},
	"extensionsUsed":[
		"KHR_texture_transform"
	],
	"extensionsRequired":[
		"KHR_texture_transform"
	],
	"scene":0,
	"scenes":[
		{
			"name":"Scene",
			"nodes":[
				0,
				1
			]
		}
	],
	"nodes":[
		{
			"mesh":0,
			"name":"Cube",
			"translation":[
				0,
				0.125,
				0
			]
		},
		{
			"camera":0,
			"name":"Camera",
			"rotation":[
				-0.19597336649894714,
				0.27965039014816284,
				0.058421969413757324,
				0.9380708932876587
			],
			"translation":[
				0.897385835647583,
				0.824225902557373,
				1.43964684009552
			]
		}
	],
	"cameras":[
		{
			"name":"Camera.001",
			"perspective":{
				"aspectRatio":1.7777777777777777,
				"yfov":0.39959652046304894,
				"zfar":1000,
				"znear":0.10000000149011612
			},
			"type":"perspective"
		}
	],
	"materials":[
		{
			"doubleSided":true,
			"name":"Wood",
			"normalTexture":{
				"index":0,
				"scale":1.5
			},
			"pbrMetallicRoughness":{
				"baseColorTexture":{
					"index":1
				},
				"metallicRoughnessTexture":{
					"index":2
				}
			}
		},
		{
			"doubleSided":true,
			"name":"Gold",
			"normalTexture":{
				"extensions":{
					"KHR_texture_transform":{
						"offset":[
							0,
							-3
						],
						"scale":[
							4,
							4
						]
					}
				},
				"index":3,
				"scale":1.7999999523162842
			},
			"pbrMetallicRoughness":{
				"baseColorTexture":{
					"extensions":{
						"KHR_texture_transform":{
							"offset":[
								0,
								-3
							],
							"scale":[
								4,
								4
							]
						}
					},
					"index":4
				},
				"metallicRoughnessTexture":{
					"index":5
				}
			}
		},
		{
			"doubleSided":true,
			"name":"Metal",
			"normalTexture":{
				"extensions":{
					"KHR_texture_transform":{
						"offset":[
							0,
							-7
						],
						"scale":[
							8,
							8
						]
					}
				},
				"index":6,
				"scale":1.7999999523162842
			},
			"pbrMetallicRoughness":{
				"baseColorTexture":{
					"extensions":{
						"KHR_texture_transform":{
							"offset":[
								0,
								-7
							],
							"scale":[
								8,
								8
							]
						}
					},
					"index":7
				},
				"metallicRoughnessTexture":{
					"index":8
				}
			}
		}
	],
	"meshes":[
		{
			"name":"Cube",
			"primitives":[
				{
					"attributes":{
						"POSITION":0,
						"NORMAL":1,
						"TEXCOORD_0":2
					},
					"indices":3,
					"material":0
				},
				{
					"attributes":{
						"POSITION":4,
						"NORMAL":5,
						"TEXCOORD_0":6
					},
					"indices":7,
					"material":1
				},
				{
					"attributes":{
						"POSITION":8,
						"NORMAL":9,
						"TEXCOORD_0":10
					},
					"indices":11,
					"material":2
				}
			]
		}
	],
	"textures":[
		{
			"sampler":0,
			"source":0
		},
		{
			"sampler":0,
			"source":1
		},
		{
			"sampler":0,
			"source":2
		},
		{
			"sampler":0,
			"source":3
		},
		{
			"sampler":0,
			"source":4
		},
		{
			"sampler":0,
			"source":5
		},
		{
			"sampler":0,
			"source":6
		},
		{
			"sampler":0,
			"source":7
		},
		{
			"sampler":0,
			"source":8
		}
	],
	"images":[
		{
			"mimeType":"image/png",
			"name":"dark_wooden_planks_nor_gl_1k",
			"uri":"dark_wooden_planks_nor_gl_1k.png"
		},
		{
			"mimeType":"image/png",
			"name":"dark_wooden_planks_diff_1k",
			"uri":"dark_wooden_planks_diff_1k.png"
		},
		{
			"mimeType":"image/png",
			"name":"1x1_Black-dark_wooden_planks_rough_1k",
			"uri":"1x1_Black-dark_wooden_planks_rough_1k.png"
		},
		{
			"mimeType":"image/png",
			"name":"rust_coarse_01_nor_gl_1k",
			"uri":"rust_coarse_01_nor_gl_1k.png"
		},
		{
			"mimeType":"image/png",
			"name":"rust_coarse_01_diff_1k",
			"uri":"rust_coarse_01_diff_1k.png"
		},
		{
			"mimeType":"image/png",
			"name":"1x1_Black-rust_coarse_01_rough_1k",
			"uri":"1x1_Black-rust_coarse_01_rough_1k.png"
		},
		{
			"mimeType":"image/png",
			"name":"rusty_metal_02_nor_gl_1k",
			"uri":"rusty_metal_02_nor_gl_1k.png"
		},
		{
			"mimeType":"image/png",
			"name":"rusty_metal_02_diff_1k",
			"uri":"rusty_metal_02_diff_1k.png"
		},
		{
			"mimeType":"image/png",
			"name":"1x1_Black-rusty_metal_02_rough_1k",
			"uri":"1x1_Black-rusty_metal_02_rough_1k.png"
		}
	],
	"accessors":[
		{
			"bufferView":0,
			"componentType":5126,
			"count":432,
			"max":[
				0.37593844532966614,
				0.259630411863327,
				0.25106513500213623
			],
			"min":[
				-0.3759382665157318,
				-0.125,
				-0.25499194860458374
			],
			"type":"VEC3"
		},
		{
			"bufferView":1,
			"componentType":5126,
			"count":432,
			"type":"VEC3"
		},
		{
			"bufferView":2,
			"componentType":5126,
			"count":432,
			"type":"VEC2"
		},
		{
			"bufferView":3,
			"componentType":5123,
			"count":903,
			"type":"SCALAR"
		},
		{
			"bufferView":4,
			"componentType":5126,
			"count":8164,
			"max":[
				0.3870794475078583,
				0.26444846391677856,
				0.26194798946380615
			],
			"min":[
				-0.3869999945163727,
				-0.12700000405311584,
				-0.26194798946380615
			],
			"type":"VEC3"
		},
		{
			"bufferView":5,
			"componentType":5126,
			"count":8164,
			"type":"VEC3"
		},
		{
			"bufferView":6,
			"componentType":5126,
			"count":8164,
			"type":"VEC2"
		},
		{
			"bufferView":7,
			"componentType":5123,
			"count":28224,
			"type":"SCALAR"
		},
		{
			"bufferView":8,
			"componentType":5126,
			"count":6203,
			"max":[
				0.22599999606609344,
				0.21963240206241608,
				0.30827876925468445
			],
			"min":[
				-0.22599999606609344,
				0,
				-0.28101834654808044
			],
			"type":"VEC3"
		},
		{
			"bufferView":9,
			"componentType":5126,
			"count":6203,
			"type":"VEC3"
		},
		{
			"bufferView":10,
			"componentType":5126,
			"count":6203,
			"type":"VEC2"
		},
		{
			"bufferView":11,
			"componentType":5123,
			"count":16863,
			"type":"SCALAR"
		}
	],
	"bufferViews":[
		{
			"buffer":0,
			"byteLength":5184,
			"byteOffset":0,
			"target":34962
		},
		{
			"buffer":0,
			"byteLength":5184,
			"byteOffset":5184,
			"target":34962
		},
		{
			"buffer":0,
			"byteLength":3456,
			"byteOffset":10368,
			"target":34962
		},
		{
			"buffer":0,
			"byteLength":1806,
			"byteOffset":13824,
			"target":34963
		},
		{
			"buffer":0,
			"byteLength":97968,
			"byteOffset":15632,
			"target":34962
		},
		{
			"buffer":0,
			"byteLength":97968,
			"byteOffset":113600,
			"target":34962
		},
		{
			"buffer":0,
			"byteLength":65312,
			"byteOffset":211568,
			"target":34962
		},
		{
			"buffer":0,
			"byteLength":56448,
			"byteOffset":276880,
			"target":34963
		},
		{
			"buffer":0,
			"byteLength":74436,
			"byteOffset":333328,
			"target":34962
		},
		{
			"buffer":0,
			"byteLength":74436,
			"byteOffset":407764,
			"target":34962
		},
		{
			"buffer":0,
			"byteLength":49624,
			"byteOffset":482200,
			"target":34962
		},
		{
			"buffer":0,
			"byteLength":33726,
			"byteOffset":531824,
			"target":34963
		}
	],
	"samplers":[
		{
			"magFilter":9729,
			"minFilter":9987
		}
	],
	"buffers":[
		{
			"byteLength":565552,
			"uri":"treasure_box.bin"
		}
	]
}
