{
	"asset":{
		"generator":"Khronos glTF Blender I/O v3.6.27",
		"version":"2.0"
	},
	"scene":0,
	"scenes":[
		{
			"name":"Scene",
			"nodes":[
				0,
				1,
				2,
				3
			]
		}
	],
	"nodes":[
		{
			"mesh":0,
			"name":"Cube"
		},
		{
			"mesh":1,
			"name":"Sphere",
			"translation":[
				-2.5,
				0,
				0
			]
		},
		{
			"mesh":2,
			"name":"Cone",
			"translation":[
				2.5,
				0,
				0
			]
		},
		{
			"camera":0,
			"name":"Camera",
			"rotation":[
				-0.18944425880908966,
				0,
				0,
				0.9818915128707886
			],
			"translation":[
				0,
				4,
				10
			]
		}
	],
	"cameras":[
		{
			"name":"Camera.001",
			"perspective":{
				"aspectRatio":1.7777777777777777,
				"yfov":0.39959651231765747,
				"zfar":100,
				"znear":0.10000000149011612
			},
			"type":"perspective"
		}
	],
	"materials":[
		{
			"doubleSided":true,
			"name":"Green",
			"pbrMetallicRoughness":{
				"baseColorFactor":[
					0,
					1,
					0,
					1
				],
				"metallicFactor":0,
				"roughnessFactor":0.5
			}
		},
		{
			"doubleSided":true,
			"name":"Red.001",
			"pbrMetallicRoughness":{
				"baseColorFactor":[
					1,
					0,
					0,
					1
				],
				"metallicFactor":0,
				"roughnessFactor":0.5
			}
		},
		{
			"doubleSided":true,
			"name":"Blue",
			"pbrMetallicRoughness":{
				"baseColorFactor":[
					0,
					0,
					1,
					1
				],
				"metallicFactor":0,
				"roughnessFactor":0.5
			}
		}
	],
	"meshes":[
		{
			"name":"Cube",
			"primitives":[
				{
					"attributes":{
						"COLOR_0":0,
						"POSITION":1,
						"NORMAL":2,
						"TEXCOORD_0":3,
						"TANGENT":4
					},
					"indices":5,
					"material":0
				}
			]
		},
		{
			"name":"Sphere",
			"primitives":[
				{
					"attributes":{
						"COLOR_0":6,
						"POSITION":7,
						"NORMAL":8,
						"TEXCOORD_0":9,
						"TANGENT":10
					},
					"indices":11,
					"material":1
				}
			]
		},
		{
			"name":"Cone",
			"primitives":[
				{
					"attributes":{
						"COLOR_0":12,
						"POSITION":13,
						"NORMAL":14,
						"TEXCOORD_0":15,
						"TANGENT":16
					},
					"indices":17,
					"material":2
				}
			]
		}
	],
	"accessors":[
		{
			"bufferView":0,
			"componentType":5123,
			"count":24,
			"normalized":true,
			"type":"VEC4"
		},
		{
			"bufferView":1,
			"componentType":5126,
			"count":24,
			"max":[
				1,
				1,
				1
			],
			"min":[
				-1,
				-1,
				-1
			],
			"type":"VEC3"
		},
		{
			"bufferView":2,
			"componentType":5126,
			"count":24,
			"type":"VEC3"
		},
		{
			"bufferView":3,
			"componentType":5126,
			"count":24,
			"type":"VEC2"
		},
		{
			"bufferView":4,
			"componentType":5126,
			"count":24,
			"type":"VEC4"
		},
		{
			"bufferView":5,
			"componentType":5123,
			"count":36,
			"type":"SCALAR"
		},
		{
			"bufferView":6,
			"componentType":5123,
			"count":559,
			"normalized":true,
			"type":"VEC4"
		},
		{
			"bufferView":7,
			"componentType":5126,
			"count":559,
			"max":[
				0.9999997019767761,
				1,
				0.9999993443489075
			],
			"min":[
				-0.9999990463256836,
				-1,
				-1
			],
			"type":"VEC3"
		},
		{
			"bufferView":8,
			"componentType":5126,
			"count":559,
			"type":"VEC3"
		},
		{
			"bufferView":9,
			"componentType":5126,
			"count":559,
			"type":"VEC2"
		},
		{
			"bufferView":10,
			"componentType":5126,
			"count":559,
			"type":"VEC4"
		},
		{
			"bufferView":11,
			"componentType":5123,
			"count":2880,
			"type":"SCALAR"
		},
		{
			"bufferView":12,
			"componentType":5123,
			"count":65,
			"normalized":true,
			"type":"VEC4"
		},
		{
			"bufferView":13,
			"componentType":5126,
			"count":65,
			"max":[
				1,
				1,
				1
			],
			"min":[
				-1,
				-1,
				-1
			],
			"type":"VEC3"
		},
		{
			"bufferView":14,
			"componentType":5126,
			"count":65,
			"type":"VEC3"
		},
		{
			"bufferView":15,
			"componentType":5126,
			"count":65,
			"type":"VEC2"
		},
		{
			"bufferView":16,
			"componentType":5126,
			"count":65,
			"type":"VEC4"
		},
		{
			"bufferView":17,
			"componentType":5123,
			"count":186,
			"type":"SCALAR"
		}
	],
	"bufferViews":[
		{
			"buffer":0,
			"byteLength":192,
			"byteOffset":0,
			"target":34962
		},
		{
			"buffer":0,
			"byteLength":288,
			"byteOffset":192,
			"target":34962
		},
		{
			"buffer":0,
			"byteLength":288,
			"byteOffset":480,
			"target":34962
		},
		{
			"buffer":0,
			"byteLength":192,
			"byteOffset":768,
			"target":34962
		},
		{
			"buffer":0,
			"byteLength":384,
			"byteOffset":960,
			"target":34962
		},
		{
			"buffer":0,
			"byteLength":72,
			"byteOffset":1344,
			"target":34963
		},
		{
			"buffer":0,
			"byteLength":4472,
			"byteOffset":1416,
			"target":34962
		},
		{
			"buffer":0,
			"byteLength":6708,
			"byteOffset":5888,
			"target":34962
		},
		{
			"buffer":0,
			"byteLength":6708,
			"byteOffset":12596,
			"target":34962
		},
		{
			"buffer":0,
			"byteLength":4472,
			"byteOffset":19304,
			"target":34962
		},
		{
			"buffer":0,
			"byteLength":8944,
			"byteOffset":23776,
			"target":34962
		},
		{
			"buffer":0,
			"byteLength":5760,
			"byteOffset":32720,
			"target":34963
		},
		{
			"buffer":0,
			"byteLength":520,
			"byteOffset":38480,
			"target":34962
		},
		{
			"buffer":0,
			"byteLength":780,
			"byteOffset":39000,
			"target":34962
		},
		{
			"buffer":0,
			"byteLength":780,
			"byteOffset":39780,
			"target":34962
		},
		{
			"buffer":0,
			"byteLength":520,
			"byteOffset":40560,
			"target":34962
		},
		{
			"buffer":0,
			"byteLength":1040,
			"byteOffset":41080,
			"target":34962
		},
		{
			"buffer":0,
			"byteLength":372,
			"byteOffset":42120,
			"target":34963
		}
	],
	"buffers":[
		{
			"byteLength":42492,
			"uri":"data:application/octet-stream;base64,"
		}
	]
}
