{
	"asset":{
		"generator":"Khronos glTF Blender I/O v3.5.30",
		"version":"2.0"
	},
	"scene":0,
	"scenes":[
		{
			"name":"Scene",
			"nodes":[
				0,
				1,
				2
			]
		}
	],
	"nodes":[
		{
			"mesh":0,
			"name":"Cube"
		},
		{
			"mesh":1,
			"name":"Sphere",
			"translation":[
				-2.5,
				0,
				0
			]
		},
		{
			"mesh":2,
			"name":"Cone",
			"translation":[
				2.5,
				0,
				0
			]
		}
	],
	"materials":[
		{
			"doubleSided":true,
			"name":"Material",
			"pbrMetallicRoughness":{
				"baseColorFactor":[
					0.800000011920929,
					0.800000011920929,
					0.800000011920929,
					1
				],
				"metallicFactor":0,
				"roughnessFactor":0.5
			}
		}
	],
	"meshes":[
		{
			"name":"Cube",
			"primitives":[
				{
					"attributes":{
						"POSITION":0,
						"TEXCOORD_0":1,
						"NORMAL":2,
						"TANGENT":3
					},
					"indices":4,
					"material":0
				}
			]
		},
		{
			"name":"Sphere",
			"primitives":[
				{
					"attributes":{
						"POSITION":5,
						"TEXCOORD_0":6,
						"NORMAL":7,
						"TANGENT":8
					},
					"indices":9
				}
			]
		},
		{
			"name":"Cone",
			"primitives":[
				{
					"attributes":{
						"POSITION":10,
						"TEXCOORD_0":11,
						"NORMAL":12
					},
					"indices":13
				}
			]
		}
	],
	"accessors":[
		{
			"bufferView":0,
			"componentType":5126,
			"count":24,
			"max":[
				1,
				1,
				1
			],
			"min":[
				-1,
				-1,
				-1
			],
			"type":"VEC3"
		},
		{
			"bufferView":1,
			"componentType":5126,
			"count":24,
			"type":"VEC2"
		},
		{
			"bufferView":2,
			"componentType":5126,
			"count":24,
			"type":"VEC3"
		},
		{
			"bufferView":3,
			"componentType":5126,
			"count":24,
			"type":"VEC4"
		},
		{
			"bufferView":4,
			"componentType":5123,
			"count":36,
			"type":"SCALAR"
		},
		{
			"bufferView":5,
			"componentType":5126,
			"count":559,
			"max":[
				0.9999997019767761,
				1,
				0.9999993443489075
			],
			"min":[
				-0.9999990463256836,
				-1,
				-1
			],
			"type":"VEC3"
		},
		{
			"bufferView":6,
			"componentType":5126,
			"count":559,
			"type":"VEC2"
		},
		{
			"bufferView":7,
			"componentType":5126,
			"count":559,
			"type":"VEC3"
		},
		{
			"bufferView":8,
			"componentType":5126,
			"count":559,
			"type":"VEC4"
		},
		{
			"bufferView":9,
			"componentType":5123,
			"count":2880,
			"type":"SCALAR"
		},
		{
			"bufferView":10,
			"componentType":5126,
			"count":65,
			"max":[
				1,
				1,
				1
			],
			"min":[
				-1,
				-1,
				-1
			],
			"type":"VEC3"
		},
		{
			"bufferView":11,
			"componentType":5126,
			"count":65,
			"type":"VEC2"
		},
		{
			"bufferView":12,
			"componentType":5126,
			"count":65,
			"type":"VEC3"
		},
		{
			"bufferView":13,
			"componentType":5123,
			"count":186,
			"type":"SCALAR"
		}
	],
	"bufferViews":[
		{
			"buffer":0,
			"byteLength":288,
			"byteOffset":0,
			"target":34962
		},
		{
			"buffer":0,
			"byteLength":192,
			"byteOffset":288,
			"target":34962
		},
		{
			"buffer":0,
			"byteLength":288,
			"byteOffset":480,
			"target":34962
		},
		{
			"buffer":0,
			"byteLength":384,
			"byteOffset":768,
			"target":34962
		},
		{
			"buffer":0,
			"byteLength":72,
			"byteOffset":1152,
			"target":34963
		},
		{
			"buffer":0,
			"byteLength":6708,
			"byteOffset":1224,
			"target":34962
		},
		{
			"buffer":0,
			"byteLength":4472,
			"byteOffset":7932,
			"target":34962
		},
		{
			"buffer":0,
			"byteLength":6708,
			"byteOffset":12404,
			"target":34962
		},
		{
			"buffer":0,
			"byteLength":8944,
			"byteOffset":19112,
			"target":34962
		},
		{
			"buffer":0,
			"byteLength":5760,
			"byteOffset":28056,
			"target":34963
		},
		{
			"buffer":0,
			"byteLength":780,
			"byteOffset":33816,
			"target":34962
		},
		{
			"buffer":0,
			"byteLength":520,
			"byteOffset":34596,
			"target":34962
		},
		{
			"buffer":0,
			"byteLength":780,
			"byteOffset":35116,
			"target":34962
		},
		{
			"buffer":0,
			"byteLength":372,
			"byteOffset":35896,
			"target":34963
		}
	],
	"buffers":[
		{
			"byteLength":36268,
			"uri":"data:application/octet-stream;base64,"
		}
	]
}
