{
	"asset":{
		"generator":"Khronos glTF Blender I/O v3.5.30",
		"version":"2.0"
	},
	"extensionsUsed":[
		"KHR_materials_emissive_strength"
	],
	"scene":0,
	"scenes":[
		{
			"name":"Scene",
			"nodes":[
				0,
				1,
				2,
				3,
				4,
				5,
				6
			]
		}
	],
	"nodes":[
		{
			"camera":0,
			"name":"Camera",
			"rotation":[
				0.0043632048182189465,
				0,
				0,
				0.9999905824661255
			],
			"translation":[
				-0.1528167724609375,
				2.6452319622039795,
				14.10574722290039
			]
		},
		{
			"mesh":0,
			"name":"Cube"
		},
		{
			"mesh":1,
			"name":"Plane"
		},
		{
			"mesh":2,
			"name":"Cube.001",
			"rotation":[
				0,
				-0.2023431658744812,
				0,
				0.9793146848678589
			],
			"scale":[
				0.8349999785423279,
				0.8349999785423279,
				0.8349999785423279
			],
			"translation":[
				0.8999999761581421,
				0,
				-2
			]
		},
		{
			"mesh":3,
			"name":"Cube.002",
			"rotation":[
				0,
				0.14804382622241974,
				0,
				0.9889808297157288
			],
			"translation":[
				-0.9200000166893005,
				0,
				-3.755000114440918
			]
		},
		{
			"mesh":4,
			"name":"Plane.001",
			"rotation":[
				0,
				0,
				-0.7071068286895752,
				0.7071068286895752
			],
			"scale":[
				2.75,
				1,
				3.299999952316284
			],
			"translation":[
				-2.75,
				2.75,
				-3.299999952316284
			]
		},
		{
			"mesh":5,
			"name":"Plane.002",
			"rotation":[
				0,
				0,
				0.7071068286895752,
				0.7071068286895752
			],
			"scale":[
				2.75,
				1,
				3.299999952316284
			],
			"translation":[
				2.75,
				2.75,
				-3.299999952316284
			]
		}
	],
	"cameras":[
		{
			"name":"Camera",
			"perspective":{
				"aspectRatio":1.7777777777777777,
				"yfov":0.39959652046304894,
				"zfar":100,
				"znear":0.10000000149011612
			},
			"type":"perspective"
		}
	],
	"materials":[
		{
			"doubleSided":true,
			"name":"White",
			"pbrMetallicRoughness":{
				"baseColorFactor":[
					0.800000011920929,
					0.800000011920929,
					0.800000011920929,
					1
				],
				"metallicFactor":0,
				"roughnessFactor":0.5
			}
		},
		{
			"doubleSided":true,
			"emissiveFactor":[
				1,
				1,
				1
			],
			"extensions":{
				"KHR_materials_emissive_strength":{
					"emissiveStrength":10
				}
			},
			"name":"Light",
			"pbrMetallicRoughness":{
				"baseColorFactor":[
					0.800000011920929,
					0.800000011920929,
					0.800000011920929,
					1
				],
				"metallicFactor":0,
				"roughnessFactor":0.5
			}
		},
		{
			"doubleSided":true,
			"name":"Khaki",
			"pbrMetallicRoughness":{
				"baseColorFactor":[
					0.800000011920929,
					0.6600000262260437,
					0.4399999976158142,
					1
				],
				"metallicFactor":0,
				"roughnessFactor":0.5
			}
		},
		{
			"doubleSided":true,
			"name":"Red",
			"pbrMetallicRoughness":{
				"baseColorFactor":[
					1,
					0,
					0,
					1
				],
				"metallicFactor":0,
				"roughnessFactor":0.5
			}
		},
		{
			"doubleSided":true,
			"name":"Green",
			"pbrMetallicRoughness":{
				"baseColorFactor":[
					0,
					1,
					0,
					1
				],
				"metallicFactor":0,
				"roughnessFactor":0.5
			}
		}
	],
	"meshes":[
		{
			"name":"Cube.002",
			"primitives":[
				{
					"attributes":{
						"POSITION":0,
						"TEXCOORD_0":1,
						"NORMAL":2,
						"TANGENT":3
					},
					"indices":4,
					"material":0
				}
			]
		},
		{
			"name":"Plane",
			"primitives":[
				{
					"attributes":{
						"POSITION":5,
						"TEXCOORD_0":6,
						"NORMAL":7,
						"TANGENT":8
					},
					"indices":9,
					"material":1
				}
			]
		},
		{
			"name":"Cube.003",
			"primitives":[
				{
					"attributes":{
						"POSITION":10,
						"TEXCOORD_0":11,
						"NORMAL":12,
						"TANGENT":13
					},
					"indices":14,
					"material":2
				}
			]
		},
		{
			"name":"Cube.004",
			"primitives":[
				{
					"attributes":{
						"POSITION":15,
						"TEXCOORD_0":16,
						"NORMAL":17,
						"TANGENT":18
					},
					"indices":14,
					"material":2
				}
			]
		},
		{
			"name":"Plane.001",
			"primitives":[
				{
					"attributes":{
						"POSITION":19,
						"TEXCOORD_0":20,
						"NORMAL":21,
						"TANGENT":22
					},
					"indices":9,
					"material":3
				}
			]
		},
		{
			"name":"Plane.002",
			"primitives":[
				{
					"attributes":{
						"POSITION":23,
						"TEXCOORD_0":24,
						"NORMAL":25,
						"TANGENT":26
					},
					"indices":9,
					"material":4
				}
			]
		}
	],
	"accessors":[
		{
			"bufferView":0,
			"componentType":5126,
			"count":12,
			"max":[
				2.75,
				5.5,
				0
			],
			"min":[
				-2.75,
				0,
				-6.599999904632568
			],
			"type":"VEC3"
		},
		{
			"bufferView":1,
			"componentType":5126,
			"count":12,
			"type":"VEC2"
		},
		{
			"bufferView":2,
			"componentType":5126,
			"count":12,
			"type":"VEC3"
		},
		{
			"bufferView":3,
			"componentType":5126,
			"count":12,
			"type":"VEC4"
		},
		{
			"bufferView":4,
			"componentType":5123,
			"count":18,
			"type":"SCALAR"
		},
		{
			"bufferView":5,
			"componentType":5126,
			"count":4,
			"max":[
				0.5249999761581421,
				5.489999771118164,
				-1.8679999113082886
			],
			"min":[
				-0.5249999761581421,
				5.489999771118164,
				-3.167999744415283
			],
			"type":"VEC3"
		},
		{
			"bufferView":6,
			"componentType":5126,
			"count":4,
			"type":"VEC2"
		},
		{
			"bufferView":7,
			"componentType":5126,
			"count":4,
			"type":"VEC3"
		},
		{
			"bufferView":8,
			"componentType":5126,
			"count":4,
			"type":"VEC4"
		},
		{
			"bufferView":9,
			"componentType":5123,
			"count":6,
			"type":"SCALAR"
		},
		{
			"bufferView":10,
			"componentType":5126,
			"count":24,
			"max":[
				1,
				2,
				1
			],
			"min":[
				-1,
				0,
				-1
			],
			"type":"VEC3"
		},
		{
			"bufferView":11,
			"componentType":5126,
			"count":24,
			"type":"VEC2"
		},
		{
			"bufferView":12,
			"componentType":5126,
			"count":24,
			"type":"VEC3"
		},
		{
			"bufferView":13,
			"componentType":5126,
			"count":24,
			"type":"VEC4"
		},
		{
			"bufferView":14,
			"componentType":5123,
			"count":36,
			"type":"SCALAR"
		},
		{
			"bufferView":15,
			"componentType":5126,
			"count":24,
			"max":[
				0.8349999785423279,
				3.299999952316284,
				0.8349999785423279
			],
			"min":[
				-0.8349999785423279,
				0,
				-0.8349999785423279
			],
			"type":"VEC3"
		},
		{
			"bufferView":16,
			"componentType":5126,
			"count":24,
			"type":"VEC2"
		},
		{
			"bufferView":17,
			"componentType":5126,
			"count":24,
			"type":"VEC3"
		},
		{
			"bufferView":18,
			"componentType":5126,
			"count":24,
			"type":"VEC4"
		},
		{
			"bufferView":19,
			"componentType":5126,
			"count":4,
			"max":[
				1,
				0,
				1
			],
			"min":[
				-1,
				0,
				-1
			],
			"type":"VEC3"
		},
		{
			"bufferView":20,
			"componentType":5126,
			"count":4,
			"type":"VEC2"
		},
		{
			"bufferView":21,
			"componentType":5126,
			"count":4,
			"type":"VEC3"
		},
		{
			"bufferView":22,
			"componentType":5126,
			"count":4,
			"type":"VEC4"
		},
		{
			"bufferView":23,
			"componentType":5126,
			"count":4,
			"max":[
				1,
				0,
				1
			],
			"min":[
				-1,
				0,
				-1
			],
			"type":"VEC3"
		},
		{
			"bufferView":24,
			"componentType":5126,
			"count":4,
			"type":"VEC2"
		},
		{
			"bufferView":25,
			"componentType":5126,
			"count":4,
			"type":"VEC3"
		},
		{
			"bufferView":26,
			"componentType":5126,
			"count":4,
			"type":"VEC4"
		}
	],
	"bufferViews":[
		{
			"buffer":0,
			"byteLength":144,
			"byteOffset":0,
			"target":34962
		},
		{
			"buffer":0,
			"byteLength":96,
			"byteOffset":144,
			"target":34962
		},
		{
			"buffer":0,
			"byteLength":144,
			"byteOffset":240,
			"target":34962
		},
		{
			"buffer":0,
			"byteLength":192,
			"byteOffset":384,
			"target":34962
		},
		{
			"buffer":0,
			"byteLength":36,
			"byteOffset":576,
			"target":34963
		},
		{
			"buffer":0,
			"byteLength":48,
			"byteOffset":612,
			"target":34962
		},
		{
			"buffer":0,
			"byteLength":32,
			"byteOffset":660,
			"target":34962
		},
		{
			"buffer":0,
			"byteLength":48,
			"byteOffset":692,
			"target":34962
		},
		{
			"buffer":0,
			"byteLength":64,
			"byteOffset":740,
			"target":34962
		},
		{
			"buffer":0,
			"byteLength":12,
			"byteOffset":804,
			"target":34963
		},
		{
			"buffer":0,
			"byteLength":288,
			"byteOffset":816,
			"target":34962
		},
		{
			"buffer":0,
			"byteLength":192,
			"byteOffset":1104,
			"target":34962
		},
		{
			"buffer":0,
			"byteLength":288,
			"byteOffset":1296,
			"target":34962
		},
		{
			"buffer":0,
			"byteLength":384,
			"byteOffset":1584,
			"target":34962
		},
		{
			"buffer":0,
			"byteLength":72,
			"byteOffset":1968,
			"target":34963
		},
		{
			"buffer":0,
			"byteLength":288,
			"byteOffset":2040,
			"target":34962
		},
		{
			"buffer":0,
			"byteLength":192,
			"byteOffset":2328,
			"target":34962
		},
		{
			"buffer":0,
			"byteLength":288,
			"byteOffset":2520,
			"target":34962
		},
		{
			"buffer":0,
			"byteLength":384,
			"byteOffset":2808,
			"target":34962
		},
		{
			"buffer":0,
			"byteLength":48,
			"byteOffset":3192,
			"target":34962
		},
		{
			"buffer":0,
			"byteLength":32,
			"byteOffset":3240,
			"target":34962
		},
		{
			"buffer":0,
			"byteLength":48,
			"byteOffset":3272,
			"target":34962
		},
		{
			"buffer":0,
			"byteLength":64,
			"byteOffset":3320,
			"target":34962
		},
		{
			"buffer":0,
			"byteLength":48,
			"byteOffset":3384,
			"target":34962
		},
		{
			"buffer":0,
			"byteLength":32,
			"byteOffset":3432,
			"target":34962
		},
		{
			"buffer":0,
			"byteLength":48,
			"byteOffset":3464,
			"target":34962
		},
		{
			"buffer":0,
			"byteLength":64,
			"byteOffset":3512,
			"target":34962
		}
	],
	"buffers":[
		{
			"byteLength":3576,
			"uri":"data:application/octet-stream;base64,"
		}
	]
}
